<svg xmlns="http://www.w3.org/2000/svg" id="search_1_" width="13" height="13" data-name="search (1)" viewBox="0 0 13 13">
    <defs>
        <style>
            .cls-1{fill:#fbbb00}.cls-2{fill:#518ef8}.cls-3{fill:#28b446}.cls-4{fill:#f14336}
        </style>
    </defs>
    <path id="Path_7037" d="M2.895 142.634l-.455 1.7-1.662.035a6.542 6.542 0 0 1-.048-6.1l1.479.271.648 1.471a3.9 3.9 0 0 0 .037 2.624z" class="cls-1" data-name="Path 7037" transform="translate(0 -134.772)"/>
    <path id="Path_7038" d="M267.9 208.176a6.529 6.529 0 0 1-2.328 6.313l-1.863-.1-.264-1.646a3.892 3.892 0 0 0 1.675-1.988h-3.492v-2.584h6.272z" class="cls-2" data-name="Path 7038" transform="translate(-255.015 -202.927)"/>
    <path id="Path_7039" d="M40.35 313.139a6.533 6.533 0 0 1-9.841-2l2.116-1.732a3.884 3.884 0 0 0 5.6 1.989z" class="cls-3" data-name="Path 7039" transform="translate(-29.731 -301.577)"/>
    <path id="Path_7040" d="M38.593 1.5l-2.116 1.736a3.884 3.884 0 0 0-5.726 2.034l-2.127-1.743A6.532 6.532 0 0 1 38.593 1.5z" class="cls-4" data-name="Path 7040" transform="translate(-27.894)"/>
</svg>
