<svg xmlns="http://www.w3.org/2000/svg" width="13.326" height="14.535" viewBox="0 0 13.326 14.535">
    <defs>
        <style>
            .cls-1{fill:#fff}
        </style>
    </defs>
    <g id="Group_4444" data-name="Group 4444">
        <path id="Path_2030" d="M20.759 16.383a1.34 1.34 0 0 0 .662.173 1.363 1.363 0 0 0 .721-.206l3.12-1.954a1.807 1.807 0 0 0 .854-1.54V5.717a1.805 1.805 0 0 0-.854-1.54l-3.124-1.952a1.363 1.363 0 0 0-2.081 1.155v.454h-4.24A1.817 1.817 0 0 0 14 5.652v1.211a.606.606 0 0 0 1.211 0V5.652a.606.606 0 0 1 .606-.606h4.24v8.48h-4.24a.606.606 0 0 1-.606-.606v-1.211a.606.606 0 1 0-1.211 0v1.211a1.817 1.817 0 0 0 1.817 1.817h4.24v.454a1.363 1.363 0 0 0 .702 1.192zm.51-13a.142.142 0 0 1 .077-.13.151.151 0 0 1 .074-.021.139.139 0 0 1 .077.024L24.619 5.2a.606.606 0 0 1 .285.519v7.139a.606.606 0 0 1-.285.519L21.5 15.32a.138.138 0 0 1-.151 0 .142.142 0 0 1-.076-.127z" class="cls-1" data-name="Path 2030" transform="translate(-12.789 -2.021)"/>
        <path id="Path_2031" d="M70.606 44.423a.606.606 0 0 0 .606-.606v-1.211a.606.606 0 1 0-1.211 0v1.211a.606.606 0 0 0 .605.606z" class="cls-1" data-name="Path 2031" transform="translate(-60.308 -35.946)"/>
        <path id="Path_2032" d="M10.009 41.585a.588.588 0 0 0 .232.047.606.606 0 0 0 .429-.177l1.211-1.211a.606.606 0 0 0 0-.857l-1.211-1.211a.606.606 0 0 0-1.034.429v.606h-3.03a.606.606 0 1 0 0 1.211h3.028v.606a.606.606 0 0 0 .375.557z" class="cls-1" data-name="Path 2032" transform="translate(-6 -32.549)"/>
    </g>
</svg>
